<?xml version="1.0" encoding="UTF-8" standalone="no"?>
<!DOCTYPE svg PUBLIC "-//W3C//DTD SVG 1.1//EN" "http://www.w3.org/Graphics/SVG/1.1/DTD/svg11.dtd">
<svg width="100%" height="100%" viewBox="0 0 316 85" version="1.1" xmlns="http://www.w3.org/2000/svg" xmlns:xlink="http://www.w3.org/1999/xlink" xml:space="preserve" xmlns:serif="http://www.serif.com/" style="fill-rule:evenodd;clip-rule:evenodd;stroke-linejoin:round;stroke-miterlimit:2;">
    <g transform="matrix(1,0,0,1,-3632.34,-2183.71)">
        <g transform="matrix(1,0,0,1,2090,1236)">
            <g transform="matrix(1,0,0,1,690,130)">
                <g id="Log-in-Button-Background" serif:id="Log in Button Background" transform="matrix(0.470178,0,0,0.0996057,431.53,801.772)">
                    <path d="M1565.64,372.291C1565.64,255.124 1545.49,160 1520.67,160L939.976,160C915.155,160 895.003,255.124 895.003,372.291L895.003,796.872C895.003,914.039 915.155,1009.16 939.976,1009.16L1520.67,1009.16C1545.49,1009.16 1565.64,914.039 1565.64,796.872L1565.64,372.291Z" style="fill:rgb(162,211,194);"/>
                </g>
                <g transform="matrix(1,0,0,1,987.708,398.32)">
                    <text x="-45.226px" y="473.434px" style="font-family:'Dubai-Medium', 'Dubai', sans-serif;font-weight:500;font-size:36px;fill:rgb(35,12,15);">Con<tspan x="12.734px 25.91px " y="473.434px 473.434px ">ti</tspan>nue</text>
                </g>
            </g>
        </g>
    </g>
</svg>
