<?xml version="1.0" encoding="UTF-8" standalone="no"?>
<!DOCTYPE svg PUBLIC "-//W3C//DTD SVG 1.1//EN" "http://www.w3.org/Graphics/SVG/1.1/DTD/svg11.dtd">
<svg width="100%" height="100%" viewBox="0 0 140 38" version="1.1" xmlns="http://www.w3.org/2000/svg" xmlns:xlink="http://www.w3.org/1999/xlink" xml:space="preserve" xmlns:serif="http://www.serif.com/" style="fill-rule:evenodd;clip-rule:evenodd;stroke-linejoin:round;stroke-miterlimit:2;">
    <g transform="matrix(1,0,0,1,-3850,-22.4463)">
        <g transform="matrix(1,0,0,1,2090,2.84217e-14)">
            <g transform="matrix(1,0,0,1,1492.5,-861.912)">
                <g id="Log-in-Button-Background" serif:id="Log in Button Background" transform="matrix(0.208756,0,0,0.0442244,80.6623,877.282)">
                    <path d="M1565.64,372.291C1565.64,255.124 1545.49,160 1520.67,160L939.976,160C915.155,160 895.003,255.124 895.003,372.291L895.003,796.872C895.003,914.039 915.155,1009.16 939.976,1009.16L1520.67,1009.16C1545.49,1009.16 1565.64,914.039 1565.64,796.872L1565.64,372.291Z" style="fill:rgb(150,72,83);"/>
                </g>
                <g transform="matrix(1,0,0,1,351.186,434.191)">
                    <text x="-45.226px" y="473.434px" style="font-family:'Dubai-Medium', 'Dubai', sans-serif;font-weight:500;font-size:20px;fill:rgb(245,245,245);">Lo<tspan x="-24.686px -14.466px " y="473.434px 473.434px ">g </tspan>out</text>
                </g>
            </g>
        </g>
    </g>
</svg>
