<?xml version="1.0" encoding="UTF-8" standalone="no"?>
<!DOCTYPE svg PUBLIC "-//W3C//DTD SVG 1.1//EN" "http://www.w3.org/Graphics/SVG/1.1/DTD/svg11.dtd">
<svg width="100%" height="100%" viewBox="0 0 125 55" version="1.1" xmlns="http://www.w3.org/2000/svg" xmlns:xlink="http://www.w3.org/1999/xlink" xml:space="preserve" xmlns:serif="http://www.serif.com/" style="fill-rule:evenodd;clip-rule:evenodd;stroke-linecap:round;stroke-linejoin:round;stroke-miterlimit:1.5;">
    <g transform="matrix(1,0,0,1,-4400.2,-947.5)">
        <g transform="matrix(1,0,0,1,4200,0)">
            <g id="Mark-as-Watched-Button-Background" serif:id="Mark as Watched Button Background" transform="matrix(0.18639,0,0,0.0647697,33.3806,937.137)">
                <path d="M1565.64,372.291C1565.64,255.124 1532.59,160 1491.87,160L968.773,160C928.059,160 895.003,255.124 895.003,372.291L895.003,796.872C895.003,914.039 928.059,1009.16 968.773,1009.16L1491.87,1009.16C1532.59,1009.16 1565.64,914.039 1565.64,796.872L1565.64,372.291Z" style="fill:rgb(255,232,173);"/>
            </g>
            <g id="Plus" transform="matrix(3.90123,0,0,3.90123,-4481.19,-2579.88)">
                <g transform="matrix(1,0,0,1,-4200,0)">
                    <path d="M5416,915L5416,907.441" style="fill:none;stroke:rgb(35,12,15);stroke-width:0.51px;"/>
                </g>
                <g transform="matrix(6.12323e-17,1,-1,6.12323e-17,2127.22,-4504.78)">
                    <path d="M5416,915L5416,907.441" style="fill:none;stroke:rgb(35,12,15);stroke-width:0.51px;"/>
                </g>
            </g>
        </g>
    </g>
</svg>
