<?xml version="1.0" encoding="UTF-8" standalone="no"?>
<!DOCTYPE svg PUBLIC "-//W3C//DTD SVG 1.1//EN" "http://www.w3.org/Graphics/SVG/1.1/DTD/svg11.dtd">
<svg width="100%" height="100%" viewBox="0 0 125 55" version="1.1" xmlns="http://www.w3.org/2000/svg" xmlns:xlink="http://www.w3.org/1999/xlink" xml:space="preserve" xmlns:serif="http://www.serif.com/" style="fill-rule:evenodd;clip-rule:evenodd;stroke-linejoin:round;stroke-miterlimit:2;">
    <g transform="matrix(1,0,0,1,-4400.2,-947.5)">
        <g transform="matrix(1,0,0,1,4200,0)">
            <g id="Mark-as-Watched-Button-Background" serif:id="Mark as Watched Button Background" transform="matrix(0.18639,0,0,0.0647697,33.3806,937.137)">
                <path d="M1565.64,372.291C1565.64,255.124 1532.59,160 1491.87,160L968.773,160C928.059,160 895.003,255.124 895.003,372.291L895.003,796.872C895.003,914.039 928.059,1009.16 968.773,1009.16L1491.87,1009.16C1532.59,1009.16 1565.64,914.039 1565.64,796.872L1565.64,372.291Z" style="fill:rgb(255,232,173);"/>
            </g>
            <g transform="matrix(1,0,0,1,-4280.12,-13.7209)">
                <text x="4510.2px" y="985.581px" style="font-family:'Dubai-Medium', 'Dubai', sans-serif;font-weight:500;font-size:20px;fill:rgb(35,12,15);">Mark as</text>
                <text x="4506.8px" y="1005.58px" style="font-family:'Dubai-Medium', 'Dubai', sans-serif;font-weight:500;font-size:20px;fill:rgb(35,12,15);">W<tspan x="4524.2px 4533.52px 4540.64px 4549.24px " y="1005.58px 1005.58px 1005.58px 1005.58px ">atch</tspan>ed</text>
            </g>
        </g>
    </g>
</svg>
