<?xml version="1.0" encoding="UTF-8" standalone="no"?>
<!DOCTYPE svg PUBLIC "-//W3C//DTD SVG 1.1//EN" "http://www.w3.org/Graphics/SVG/1.1/DTD/svg11.dtd">
<svg width="100%" height="100%" viewBox="0 0 125 55" version="1.1" xmlns="http://www.w3.org/2000/svg" xmlns:xlink="http://www.w3.org/1999/xlink" xml:space="preserve" xmlns:serif="http://www.serif.com/" style="fill-rule:evenodd;clip-rule:evenodd;stroke-linecap:round;stroke-linejoin:round;stroke-miterlimit:1.5;">
    <g transform="matrix(1,0,0,1,-5220,-947.5)">
        <g transform="matrix(1,0,0,1,4200,0)">
            <g transform="matrix(0.18639,0,0,0.0647697,853.181,937.137)">
                <g id="Add-to-List" serif:id="Add to List">
                    <path id="Add-to-List-Button" serif:id="Add to List Button" d="M1565.64,372.291C1565.64,255.124 1532.59,160 1491.87,160L968.773,160C928.059,160 895.003,255.124 895.003,372.291L895.003,796.872C895.003,914.039 928.059,1009.16 968.773,1009.16L1491.87,1009.16C1532.59,1009.16 1565.64,914.039 1565.64,796.872L1565.64,372.291Z" style="fill:rgb(162,211,194);"/>
                </g>
            </g>
            <g transform="matrix(1,0,0,1,333.612,26.0207)">
                <g transform="matrix(1.60447,0,0,1.60447,-1226.75,-520.586)">
                    <g transform="matrix(1,0,0,1,-4200,1.4992)">
                        <path d="M5420,913.501L5448.23,913.501" style="fill:none;stroke:rgb(35,12,15);stroke-width:1.25px;"/>
                    </g>
                    <g transform="matrix(1,0,0,1,-4200,0)">
                        <path d="M5420,920L5448.23,920" style="fill:none;stroke:rgb(35,12,15);stroke-width:1.25px;"/>
                    </g>
                    <g transform="matrix(1,0,0,1,-4200,5)">
                        <path d="M5420,920L5448.23,920" style="fill:none;stroke:rgb(35,12,15);stroke-width:1.25px;"/>
                    </g>
                </g>
                <g transform="matrix(0.620677,0,0,0.669634,-2394.02,252.419)">
                    <path d="M5020,1030L5025,1038L5037.43,1018.46" style="fill:none;stroke:rgb(35,12,15);stroke-width:3.1px;"/>
                </g>
            </g>
        </g>
    </g>
</svg>
